# Blender v2.82 (sub 1) OBJ File: ''
# www.blender.org
mtllib pirate_hook.mtl
o Cube
v -0.137500 -0.137500 0.137500
v -0.137500 0.137500 0.137500
v -0.137500 -0.137500 -0.137500
v -0.137500 0.137500 -0.137500
v 0.137500 -0.137500 0.137500
v 0.137500 0.137500 0.137500
v 0.137500 -0.137500 -0.137500
v 0.137500 0.137500 -0.137500
v -0.137500 0.137500 0.000000
v -0.137500 0.412500 0.000000
v 0.137500 0.137500 0.000000
v 0.137500 0.412500 0.000000
vt -0.000000 0.333333
vt 0.500000 0.333333
vt 0.500000 0.000000
vt 0.000000 -0.000000
vt 0.000000 0.333333
vt 0.000000 0.666667
vt 0.500000 0.666667
vt 0.500000 0.333333
vt 1.000000 0.333333
vt 1.000000 0.666667
vt 0.500000 0.666667
vt 1.000000 -0.000000
vt 1.000000 0.333333
vt 0.500000 -0.000000
vt 0.500000 1.000000
vt -0.000000 1.000000
vt 0.000000 0.666667
vt 0.500000 0.666667
vt -0.000000 1.000000
vt 0.500000 0.666667
vt 0.500000 1.000000
vt 1.000000 0.666667
vt 1.000000 1.000000
vt 0.500000 1.000000
vt 0.500000 0.666667
vn -1.0000 0.0000 0.0000
vn 0.0000 0.0000 -1.0000
vn 1.0000 0.0000 0.0000
vn 0.0000 0.0000 1.0000
vn 0.0000 -1.0000 0.0000
vn 0.0000 1.0000 0.0000
usemtl Material
s off
f 1/1/1 2/2/1 4/3/1 3/4/1
f 3/5/2 4/6/2 8/7/2 7/8/2
f 7/8/3 8/9/3 6/10/3 5/11/3
f 5/12/4 6/13/4 2/2/4 1/14/4
f 3/15/5 7/16/5 5/17/5 1/18/5
f 8/19/6 4/6/6 2/20/6 6/21/6
f 11/22/4 12/23/4 10/24/4 9/25/4
